<?xml version="1.0" standalone="no"?>
<!DOCTYPE svg PUBLIC "-//W3C//DTD SVG 20010904//EN"
 "http://www.w3.org/TR/2001/REC-SVG-20010904/DTD/svg10.dtd">
<svg version="1.0" xmlns="http://www.w3.org/2000/svg"
 width="25px" height="25px" viewBox="0 0 25.000000 25.000000"
 preserveAspectRatio="xMidYMid meet">
<metadata>
Created by potrace 1.16, written by Peter Selinger 2001-2019
</metadata>
<g transform="translate(0.000000,25.000000) scale(0.005981,-0.006010)"
fill="#000000" stroke="none">
<path d="M0 2080 l0 -2080 2090 0 2090 0 0 2080 0 2080 -2090 0 -2090 0 0
-2080z m2130 1800 c642 -56 1201 -421 1518 -992 245 -441 300 -1073 136 -1568
-145 -439 -473 -819 -904 -1048 -262 -140 -376 -156 -462 -65 -55 58 -58 76
-58 401 0 344 -6 384 -70 468 -50 64 -54 109 -12 153 24 27 38 32 112 41 435
57 636 258 669 673 20 236 -18 378 -135 507 -48 53 -60 106 -37 168 21 60 22
210 1 267 -14 37 -18 40 -49 37 -43 -3 -175 -66 -279 -132 -92 -60 -92 -60
-270 -21 -189 42 -444 38 -632 -10 -109 -27 -131 -25 -202 20 -136 86 -287
144 -310 121 -6 -6 -12 -59 -14 -118 -3 -94 2 -143 25 -254 4 -21 -2 -36 -30
-68 -91 -107 -127 -222 -127 -410 0 -377 152 -612 457 -710 48 -16 137 -36
198 -46 147 -24 176 -52 145 -141 -10 -28 -29 -43 -72 -57 -26 -8 -208 22
-305 50 -257 74 -430 210 -532 418 -59 117 -86 224 -102 386 -21 220 22 412
127 577 l35 56 -17 63 c-36 136 0 365 71 442 l34 37 88 -1 c108 -1 213 -37
353 -119 l91 -54 67 16 c99 25 523 25 677 0 l110 -18 80 45 c207 119 393 165
471 117 23 -14 38 -36 54 -78 42 -111 52 -187 47 -337 -5 -132 -4 -141 18
-175 112 -178 152 -351 134 -583 -34 -449 -247 -722 -643 -823 -60 -16 -90
-28 -89 -37 1 -7 9 -48 17 -91 12 -60 16 -143 16 -348 0 -148 2 -269 5 -269
21 0 177 69 257 113 438 243 739 656 838 1152 34 166 39 429 11 595 -61 371
-213 672 -471 930 -264 265 -609 434 -983 480 -140 18 -413 8 -542 -20 -684
-145 -1199 -673 -1327 -1358 -26 -140 -31 -419 -9 -542 60 -343 193 -630 406
-873 126 -145 264 -256 433 -351 88 -49 280 -132 287 -124 1 1 -1 44 -6 93 -4
50 -8 133 -8 186 l-1 96 -102 6 c-175 10 -289 58 -398 167 -68 68 -120 158
-120 207 0 38 25 72 67 90 50 20 99 -5 130 -69 34 -69 112 -134 190 -158 74
-23 188 -26 276 -9 71 15 103 6 127 -34 19 -30 20 -51 20 -338 l0 -305 -29
-45 c-60 -95 -156 -105 -332 -33 -917 368 -1388 1411 -1070 2364 189 565 642
1016 1205 1199 256 84 495 113 746 91z"/>
</g>
</svg>
