<?xml version="1.0" standalone="no"?>
<!DOCTYPE svg PUBLIC "-//W3C//DTD SVG 20010904//EN"
 "http://www.w3.org/TR/2001/REC-SVG-20010904/DTD/svg10.dtd">
<svg version="1.0" xmlns="http://www.w3.org/2000/svg"
 width="280.000000pt" height="100.000000pt" viewBox="0 0 280.000000 100.000000"
 preserveAspectRatio="xMidYMid meet">
<metadata>
Created by potrace 1.16, written by Peter Selinger 2001-2019
</metadata>
<g transform="translate(0.000000,100.000000) scale(0.010127,-0.010050)"
fill="#000000" stroke="none">
<path d="M15580 9940 c-378 -21 -669 -86 -906 -200 -464 -224 -734 -634 -734
-1115 0 -449 216 -795 650 -1040 255 -145 601 -264 1105 -380 196 -45 425
-119 525 -170 93 -47 190 -141 226 -219 72 -159 36 -327 -99 -452 -113 -105
-231 -150 -422 -160 -348 -19 -623 138 -745 424 -31 74 -65 199 -76 280 -4 32
-12 52 -19 52 -7 0 -296 -18 -641 -40 -346 -22 -640 -40 -652 -40 -23 0 -24
-2 -17 -62 54 -506 315 -976 667 -1205 262 -170 626 -263 1144 -294 556 -32
1052 40 1401 206 434 205 733 586 825 1047 31 158 31 399 -1 545 -56 265 -161
456 -351 636 -285 271 -706 438 -1625 643 -316 71 -439 114 -518 184 -91 79
-112 196 -56 308 72 144 214 212 447 212 353 0 561 -151 646 -470 14 -51 28
-95 30 -98 3 -2 288 12 633 32 345 20 639 36 652 36 23 0 23 2 17 53 -45 343
-191 663 -393 859 -231 224 -580 363 -1034 412 -173 19 -494 27 -679 16z"/>
<path d="M320 7631 l0 -2241 695 0 695 0 0 905 0 905 103 0 c237 0 390 -89
519 -302 26 -42 221 -398 433 -792 l387 -716 784 0 c431 0 784 4 784 9 0 21
-693 1347 -738 1412 -82 119 -180 238 -267 325 -87 87 -175 139 -334 200 l-84
31 39 8 c73 13 271 83 354 124 120 60 222 134 320 231 235 236 350 525 350
885 0 346 -88 606 -281 833 -159 187 -375 303 -671 362 -266 53 -274 53 -1730
57 l-1358 4 0 -2240z m2155 1319 c198 -19 304 -58 382 -143 79 -86 109 -179
101 -320 -4 -71 -10 -96 -38 -153 -39 -80 -99 -143 -171 -179 -28 -15 -115
-41 -193 -58 -140 -30 -144 -31 -493 -34 l-353 -4 0 450 0 451 328 0 c180 0
377 -5 437 -10z"/>
<path d="M1805 4630 c-538 -32 -900 -149 -1193 -385 -297 -239 -460 -610 -438
-994 26 -459 268 -791 753 -1031 246 -121 455 -191 920 -306 363 -89 485 -128
613 -194 99 -52 179 -133 222 -227 28 -58 32 -79 32 -148 0 -70 -4 -90 -32
-148 -39 -85 -132 -183 -210 -225 -109 -58 -198 -76 -367 -76 -178 1 -260 19
-388 86 -201 105 -328 306 -378 596 -6 37 -13 68 -14 70 -3 4 -1319 -78 -1323
-82 -5 -6 29 -222 48 -305 77 -328 234 -609 461 -826 139 -133 291 -220 514
-294 481 -160 1313 -185 1828 -56 197 50 420 146 567 243 326 217 554 562 626
947 14 75 19 144 18 275 0 152 -4 190 -26 286 -108 460 -410 763 -968 972
-250 94 -550 177 -1059 292 -357 81 -475 139 -532 263 -55 123 17 289 159 365
82 44 168 62 299 62 365 0 571 -152 654 -485 21 -81 23 -85 49 -85 16 0 295
16 621 35 327 19 609 35 628 35 l34 0 -7 57 c-26 222 -108 463 -217 640 -70
112 -236 283 -344 353 -231 149 -531 243 -901 279 -148 15 -489 21 -649 11z"/>
<path d="M7042 4630 c-476 -33 -891 -167 -1202 -388 -106 -76 -272 -231 -353
-330 -332 -407 -497 -997 -473 -1692 21 -636 168 -1077 497 -1490 349 -439
754 -640 1434 -711 178 -19 629 -16 794 4 255 32 466 90 646 178 473 231 799
653 960 1245 15 53 23 100 18 104 -9 9 -1205 372 -1209 367 -2 -2 -15 -48 -29
-102 -61 -236 -161 -429 -286 -556 -62 -63 -92 -85 -170 -122 -133 -64 -221
-82 -404 -82 -180 0 -256 16 -394 82 -125 60 -246 177 -308 298 -114 223 -159
516 -150 967 10 501 95 762 317 972 166 156 365 224 625 213 137 -6 217 -27
335 -88 186 -96 307 -243 384 -464 15 -42 30 -69 38 -68 27 4 1213 267 1217
270 6 4 -76 215 -124 320 -160 343 -403 625 -689 798 -217 132 -507 222 -836
259 -171 19 -478 27 -638 16z"/>
<path d="M17646 4630 c-492 -34 -894 -165 -1228 -400 -104 -73 -282 -240 -368
-345 -239 -293 -392 -669 -457 -1125 -25 -178 -25 -710 0 -890 76 -538 270
-947 611 -1285 143 -141 264 -230 436 -319 260 -133 534 -208 905 -247 177
-19 619 -16 784 4 560 70 976 264 1308 610 89 93 193 228 245 319 18 32 35 58
38 58 3 0 16 -19 29 -43 99 -176 345 -444 521 -569 181 -128 418 -236 650
-296 265 -69 506 -96 860 -95 286 0 433 13 656 58 657 133 1174 548 1430 1147
l44 103 0 -617 0 -618 1770 0 1770 0 0 555 0 555 -1075 0 -1075 0 0 1685 0
1685 -695 0 -695 0 0 -617 0 -618 -44 103 c-229 535 -657 913 -1235 1088 -467
142 -1121 160 -1612 45 -203 -47 -422 -132 -592 -229 -258 -148 -523 -403
-668 -644 -19 -32 -36 -57 -39 -58 -3 0 -21 28 -42 63 -61 105 -158 227 -263
333 -328 330 -768 526 -1325 588 -174 20 -479 27 -644 16z m495 -1083 c310
-81 524 -303 614 -638 47 -176 59 -293 59 -559 0 -250 -10 -367 -44 -546 -80
-411 -277 -639 -630 -730 -106 -27 -393 -27 -495 0 -83 22 -215 81 -281 127
-203 140 -326 374 -381 729 -25 161 -25 606 0 765 48 309 138 509 296 658 116
110 259 182 419 212 116 22 321 14 443 -18z m4050 0 c310 -81 524 -303 614
-638 47 -175 59 -293 59 -559 0 -248 -10 -362 -45 -547 -78 -409 -276 -639
-629 -729 -106 -27 -393 -27 -495 0 -84 22 -215 81 -282 127 -160 111 -282
302 -342 537 -45 174 -55 283 -56 572 0 298 11 405 60 588 85 316 263 527 528
627 164 61 402 70 588 22z"/>
<path d="M10430 2320 l0 -2240 695 0 695 0 0 905 0 905 750 0 750 0 0 -905 0
-905 700 0 700 0 0 2240 0 2240 -700 0 -700 0 0 -780 0 -780 -750 0 -750 0 0
780 0 780 -695 0 -695 0 0 -2240z"/>
</g>
</svg>
